<svg width="289" height="24" viewBox="0 0 289 24" fill="none" xmlns="http://www.w3.org/2000/svg">
    <circle cx="12" cy="12" r="12" fill="#FF0420"/>
    <path d="M12.4533 15.36C12.3925 15.36 12.3439 15.3387 12.3074 15.2962C12.2709 15.2536 12.2587 15.1989 12.2709 15.132L13.5295 9.204C13.5416 9.13712 13.5751 9.0824 13.6298 9.03984C13.6845 8.99728 13.7423 8.976 13.8031 8.976H16.229C16.5999 8.976 16.9343 9.01856 17.2322 9.10368C17.5362 9.1888 17.7885 9.31952 17.9891 9.49584C18.1898 9.67216 18.3296 9.89408 18.4087 10.1616C18.4877 10.423 18.4907 10.7301 18.4178 11.0827C18.2658 11.7819 17.9557 12.2987 17.4875 12.6331C17.0255 12.9675 16.4023 13.1347 15.6179 13.1347H14.3867L13.9672 15.132C13.9551 15.1989 13.9216 15.2536 13.8669 15.2962C13.8183 15.3387 13.7605 15.36 13.6936 15.36H12.4533ZM14.6239 11.8762H15.6727C15.9219 11.8762 16.1439 11.8093 16.3384 11.6755C16.5391 11.5418 16.6698 11.3381 16.7306 11.0645C16.761 10.9064 16.7671 10.7666 16.7488 10.645C16.7306 10.5234 16.6667 10.4261 16.5573 10.3531C16.4539 10.2802 16.2928 10.2437 16.0739 10.2437H14.9795L14.6239 11.8762Z"
          fill="white"/>
    <path d="M8.55072 15.4512C8.16768 15.4512 7.812 15.3995 7.48368 15.2962C7.15536 15.1928 6.87872 15.0378 6.65376 14.831C6.4288 14.6243 6.26768 14.3659 6.1704 14.0558C6.0792 13.7458 6.06704 13.384 6.13392 12.9706C6.18256 12.7091 6.23424 12.4477 6.28896 12.1862C6.34976 11.9248 6.41056 11.6603 6.47136 11.3928C6.672 10.572 7.03376 9.9488 7.55664 9.5232C8.07952 9.0976 8.7848 8.8848 9.67248 8.8848C10.0555 8.8848 10.4082 8.93952 10.7304 9.04896C11.0587 9.15232 11.3354 9.3104 11.5603 9.5232C11.7914 9.736 11.9525 9.99744 12.0437 10.3075C12.141 10.6176 12.1531 10.9794 12.0802 11.3928C12.0376 11.6603 11.9859 11.9248 11.9251 12.1862C11.8704 12.4477 11.8126 12.7091 11.7518 12.9706C11.5451 13.8035 11.1803 14.4267 10.6574 14.8402C10.1346 15.2475 9.43232 15.4512 8.55072 15.4512ZM8.66928 14.1379C8.9976 14.1379 9.2864 14.0406 9.53568 13.8461C9.78496 13.6515 9.96128 13.3414 10.0646 12.9158C10.1315 12.6483 10.1893 12.396 10.2379 12.1589C10.2926 11.9218 10.3413 11.6755 10.3838 11.4202C10.4629 10.9946 10.4264 10.6845 10.2744 10.4899C10.1224 10.2954 9.88224 10.1981 9.55392 10.1981C9.2256 10.1981 8.9368 10.2954 8.68752 10.4899C8.44432 10.6845 8.27104 10.9946 8.16768 11.4202C8.1008 11.6755 8.04 11.9218 7.98528 12.1589C7.93664 12.396 7.888 12.6483 7.83936 12.9158C7.7664 13.3414 7.80288 13.6515 7.9488 13.8461C8.09472 14.0406 8.33488 14.1379 8.66928 14.1379Z"
          fill="white"/>
    <path d="M188.045 20.7111C187.879 20.7111 187.746 20.653 187.647 20.5369C187.547 20.4207 187.514 20.2714 187.547 20.0889L190.982 3.91112C191.015 3.7286 191.098 3.57927 191.231 3.46312C191.38 3.34697 191.546 3.2889 191.729 3.2889H194.367C194.632 3.2889 194.815 3.34697 194.914 3.46312C195.03 3.57927 195.097 3.67882 195.113 3.76179L199.17 13.3938L201.186 3.91112C201.219 3.7286 201.311 3.57927 201.46 3.46312C201.609 3.34697 201.767 3.2889 201.933 3.2889H204.92C205.102 3.2889 205.235 3.34697 205.318 3.46312C205.417 3.57927 205.451 3.7286 205.417 3.91112L201.983 20.0889C201.95 20.2548 201.858 20.4042 201.709 20.5369C201.576 20.653 201.419 20.7111 201.236 20.7111H198.598C198.332 20.7111 198.15 20.653 198.05 20.5369C197.951 20.4042 197.884 20.3046 197.851 20.2382L193.745 10.9547L191.778 20.0889C191.745 20.2714 191.654 20.4207 191.505 20.5369C191.372 20.653 191.214 20.7111 191.032 20.7111H188.045Z"
          fill="#FF0420"/>
    <path d="M178.98 20.7111C178.797 20.7111 178.656 20.653 178.557 20.5369C178.457 20.4207 178.424 20.2714 178.457 20.0889L181.917 3.91112C181.95 3.7286 182.041 3.57927 182.191 3.46312C182.34 3.34697 182.498 3.2889 182.664 3.2889H186.024C186.189 3.2889 186.322 3.34697 186.422 3.46312C186.521 3.57927 186.554 3.7286 186.521 3.91112L183.062 20.0889C183.029 20.2714 182.937 20.4207 182.788 20.5369C182.655 20.653 182.506 20.7111 182.34 20.7111H178.98Z"
          fill="#FF0420"/>
    <path d="M158.503 20.7111C158.304 20.7111 158.163 20.6282 158.08 20.4622C157.997 20.2963 158.005 20.1304 158.105 19.9645L167.339 3.98579C167.438 3.80327 167.579 3.64564 167.762 3.5129C167.944 3.36356 168.177 3.2889 168.459 3.2889H172.292C172.574 3.2889 172.773 3.36356 172.889 3.5129C173.022 3.64564 173.096 3.80327 173.113 3.98579L175.552 19.9645C175.602 20.1968 175.56 20.3793 175.428 20.512C175.295 20.6447 175.146 20.7111 174.98 20.7111H171.968C171.719 20.7111 171.537 20.653 171.421 20.5369C171.321 20.4207 171.255 20.288 171.221 20.1387L170.798 17.6498H164.153L162.66 20.1885C162.577 20.3046 162.461 20.4207 162.311 20.5369C162.179 20.653 161.988 20.7111 161.739 20.7111H158.503ZM165.92 14.0658H170.549L169.629 7.49512L165.92 14.0658Z"
          fill="#FF0420"/>
    <path d="M140.531 20.7111C140.365 20.7111 140.232 20.653 140.132 20.5369C140.033 20.4207 140 20.2714 140.033 20.0889L143.467 3.91112C143.501 3.7286 143.592 3.57927 143.741 3.46312C143.891 3.34697 144.048 3.2889 144.214 3.2889H147.425C147.607 3.2889 147.748 3.34697 147.848 3.46312C147.947 3.57927 147.981 3.7286 147.947 3.91112L146.653 9.90934H152.801L154.07 3.91112C154.103 3.7286 154.186 3.57927 154.319 3.46312C154.468 3.34697 154.634 3.2889 154.817 3.2889H158.027C158.21 3.2889 158.351 3.34697 158.451 3.46312C158.55 3.57927 158.583 3.7286 158.55 3.91112L155.091 20.0889C155.057 20.2714 154.966 20.4207 154.817 20.5369C154.684 20.653 154.526 20.7111 154.344 20.7111H151.133C150.951 20.7111 150.81 20.653 150.71 20.5369C150.627 20.4207 150.602 20.2714 150.635 20.0889L151.955 13.8916H145.832L144.488 20.0889C144.455 20.2714 144.363 20.4207 144.214 20.5369C144.081 20.653 143.924 20.7111 143.741 20.7111H140.531Z"
          fill="#FF0420"/>
    <path d="M128.928 20.96C127.8 20.96 126.779 20.819 125.867 20.5369C124.971 20.2548 124.224 19.8317 123.627 19.2676C123.029 18.6868 122.615 17.9816 122.382 17.152C122.15 16.3058 122.125 15.3268 122.308 14.2151C122.424 13.5348 122.565 12.8047 122.731 12.0249C122.913 11.245 123.087 10.4984 123.253 9.7849C123.618 8.34134 124.183 7.12179 124.946 6.12623C125.709 5.11408 126.671 4.35082 127.833 3.83645C129.011 3.30549 130.396 3.04001 131.989 3.04001C133.051 3.04001 134.039 3.17275 134.951 3.43823C135.864 3.70371 136.635 4.10193 137.266 4.6329C137.913 5.14727 138.378 5.77779 138.66 6.52445C138.958 7.25453 139.016 8.09245 138.834 9.03823C138.801 9.18756 138.726 9.31201 138.61 9.41156C138.51 9.51112 138.386 9.5609 138.236 9.5609H134.852C134.636 9.5609 134.47 9.51942 134.354 9.43645C134.254 9.3369 134.188 9.16268 134.155 8.91379C134.171 8.05097 133.947 7.45364 133.483 7.12179C133.018 6.78994 132.404 6.62401 131.641 6.62401C130.728 6.62401 129.94 6.88119 129.276 7.39556C128.613 7.89334 128.14 8.73127 127.858 9.90934C127.509 11.2699 127.211 12.6637 126.962 14.0907C126.746 15.2688 126.846 16.115 127.26 16.6293C127.675 17.1271 128.339 17.376 129.252 17.376C130.015 17.376 130.703 17.2101 131.317 16.8782C131.931 16.5464 132.437 15.949 132.836 15.0862C132.968 14.8373 133.101 14.6714 133.234 14.5885C133.367 14.4889 133.541 14.4391 133.756 14.4391H137.141C137.291 14.4391 137.407 14.4889 137.49 14.5885C137.573 14.688 137.598 14.8125 137.564 14.9618C137.332 15.891 136.967 16.7289 136.469 17.4756C135.988 18.2056 135.374 18.8362 134.628 19.3671C133.898 19.8815 133.06 20.2797 132.114 20.5618C131.168 20.8273 130.106 20.96 128.928 20.96Z"
          fill="#FF0420"/>
    <path d="M104.228 20.7111C104.046 20.7111 103.905 20.653 103.805 20.5369C103.722 20.4207 103.697 20.2714 103.73 20.0889L107.165 3.91112C107.198 3.7286 107.289 3.57927 107.439 3.46312C107.588 3.34697 107.754 3.2889 107.937 3.2889H114.706C116.847 3.2889 118.423 3.78668 119.435 4.78223C120.464 5.76119 120.788 7.15497 120.406 8.96356C120.157 10.1416 119.659 11.1372 118.913 11.9502C118.183 12.7633 117.311 13.3772 116.299 13.792L118.415 19.9147C118.431 19.9645 118.44 20.0059 118.44 20.0391C118.44 20.0723 118.431 20.1221 118.415 20.1885C118.398 20.3212 118.324 20.4456 118.191 20.5618C118.058 20.6613 117.917 20.7111 117.768 20.7111H114.482C114.167 20.7111 113.951 20.6365 113.835 20.4871C113.736 20.3212 113.661 20.1719 113.611 20.0391L111.944 14.5636H109.38L108.21 20.0889C108.177 20.2714 108.086 20.4207 107.937 20.5369C107.787 20.653 107.621 20.7111 107.439 20.7111H104.228ZM110.127 11.0542H113.014C113.794 11.0542 114.416 10.8634 114.881 10.4818C115.345 10.1002 115.652 9.57749 115.801 8.91379C115.934 8.26668 115.851 7.74401 115.553 7.34579C115.271 6.94756 114.723 6.74845 113.91 6.74845H111.048L110.127 11.0542Z"
          fill="#FF0420"/>
    <path d="M87.0126 20.7111C86.8467 20.7111 86.714 20.653 86.6144 20.5369C86.5149 20.4207 86.4817 20.2714 86.5149 20.0889L89.9495 3.91112C89.9827 3.7286 90.074 3.57927 90.2233 3.46312C90.3726 3.34697 90.5303 3.2889 90.6962 3.2889H102.319C102.502 3.2889 102.635 3.34697 102.718 3.46312C102.817 3.57927 102.85 3.7286 102.817 3.91112L102.344 6.25068C102.294 6.43319 102.195 6.58253 102.046 6.69868C101.913 6.81482 101.755 6.8729 101.573 6.8729H93.6331L92.9113 10.2329H100.278C100.461 10.2329 100.602 10.2993 100.702 10.432C100.801 10.5482 100.834 10.6975 100.801 10.88L100.328 13.0453C100.295 13.2113 100.204 13.3606 100.054 13.4933C99.9217 13.6095 99.764 13.6676 99.5815 13.6676H92.1895L91.4677 17.1271H99.5815C99.764 17.1271 99.8968 17.1852 99.9798 17.3013C100.079 17.4175 100.112 17.5668 100.079 17.7493L99.5815 20.0889C99.5483 20.2714 99.4571 20.4207 99.3077 20.5369C99.175 20.653 99.0174 20.7111 98.8349 20.7111H87.0126Z"
          fill="#FF0420"/>
    <path d="M69.1976 20.7111C69.0317 20.7111 68.899 20.653 68.7994 20.5369C68.6999 20.4207 68.6667 20.2714 68.6999 20.0889L72.1345 3.91112C72.1677 3.7286 72.259 3.57927 72.4083 3.46312C72.5576 3.34697 72.7153 3.2889 72.8812 3.2889H79.5016C80.5138 3.2889 81.4264 3.40505 82.2394 3.63734C83.069 3.86964 83.7576 4.22638 84.3052 4.70756C84.8527 5.18875 85.2344 5.79438 85.4501 6.52445C85.6658 7.23794 85.6741 8.07586 85.475 9.03823C85.0602 10.9464 84.2139 12.3568 82.9363 13.2693C81.6753 14.1819 79.9745 14.6382 77.8341 14.6382H74.4741L73.3292 20.0889C73.296 20.2714 73.2047 20.4207 73.0554 20.5369C72.9227 20.653 72.765 20.7111 72.5825 20.7111H69.1976ZM75.1212 11.2036H77.9834C78.6637 11.2036 79.2693 11.021 79.8003 10.656C80.3479 10.291 80.7046 9.73512 80.8705 8.98845C80.9535 8.55705 80.9701 8.17542 80.9203 7.84356C80.8705 7.51171 80.6963 7.24623 80.3976 7.04712C80.1156 6.84801 79.6759 6.74845 79.0785 6.74845H76.0919L75.1212 11.2036Z"
          fill="#FF0420"/>
    <path d="M57.1363 20.96C56.0743 20.96 55.0954 20.8273 54.1994 20.5618C53.3034 20.2797 52.5567 19.8566 51.9594 19.2925C51.362 18.7283 50.9555 18.0148 50.7398 17.152C50.5241 16.2892 50.5407 15.2605 50.7896 14.0658L52.93 3.91112C52.9632 3.7286 53.0545 3.57927 53.2038 3.46312C53.3531 3.34697 53.5191 3.2889 53.7016 3.2889H56.9123C57.0948 3.2889 57.2275 3.34697 57.3105 3.46312C57.41 3.57927 57.4432 3.7286 57.41 3.91112L55.2447 14.0409C55.029 15.1194 55.0871 15.9325 55.4189 16.48C55.7674 17.011 56.4477 17.2765 57.4598 17.2765C58.4554 17.2765 59.2684 17.011 59.8989 16.48C60.5294 15.9325 60.9608 15.1194 61.1931 14.0409L63.3585 3.91112C63.3917 3.7286 63.4829 3.57927 63.6323 3.46312C63.7816 3.34697 63.9392 3.2889 64.1051 3.2889H67.3158C67.4983 3.2889 67.6311 3.34697 67.714 3.46312C67.8136 3.57927 67.8468 3.7286 67.8136 3.91112L65.6731 14.0658C65.1588 16.4385 64.213 18.1808 62.8358 19.2925C61.4752 20.4042 59.5754 20.96 57.1363 20.96Z"
          fill="#FF0420"/>
    <path d="M38.8651 20.96C37.2058 20.96 35.8452 20.7277 34.7833 20.2631C33.738 19.7985 32.983 19.1846 32.5184 18.4213C32.0704 17.6415 31.9128 16.8202 32.0455 15.9573C32.0787 15.8246 32.1451 15.7085 32.2446 15.6089C32.3608 15.4928 32.4935 15.4347 32.6428 15.4347H35.8286C36.0609 15.4347 36.2268 15.4762 36.3264 15.5591C36.426 15.6421 36.5255 15.7499 36.6251 15.8827C36.6914 16.1316 36.8242 16.3722 37.0233 16.6045C37.2224 16.8368 37.4962 17.0276 37.8446 17.1769C38.2097 17.3096 38.6577 17.376 39.1886 17.376C40.151 17.376 40.9225 17.2267 41.5033 16.928C42.084 16.6293 42.4242 16.2228 42.5237 15.7085C42.6233 15.3434 42.5569 15.0447 42.3246 14.8125C42.1089 14.5636 41.719 14.3479 41.1548 14.1653C40.6073 13.9662 39.8689 13.7671 38.9397 13.568C37.7285 13.3025 36.7329 12.9375 35.9531 12.4729C35.1732 11.9917 34.6257 11.3861 34.3104 10.656C34.0117 9.90934 33.9703 9.02164 34.186 7.9929C34.5178 6.46638 35.3391 5.26342 36.65 4.38401C37.9608 3.48801 39.6615 3.04001 41.7522 3.04001C42.8307 3.04001 43.7848 3.18934 44.6144 3.48801C45.4606 3.78668 46.1658 4.1849 46.73 4.68267C47.2941 5.18045 47.7006 5.71142 47.9495 6.27556C48.1984 6.82312 48.2814 7.36238 48.1984 7.89334C48.1818 8.02608 48.1154 8.15053 47.9993 8.26668C47.8831 8.36623 47.7504 8.41601 47.6011 8.41601H44.266C44.1 8.41601 43.9507 8.38282 43.818 8.31645C43.7018 8.25008 43.6023 8.14223 43.5193 7.9929C43.5193 7.62786 43.3285 7.3126 42.9468 7.04712C42.5652 6.76505 42.0591 6.62401 41.4286 6.62401C40.7151 6.62401 40.1178 6.75675 39.6366 7.02223C39.1554 7.27112 38.8568 7.66105 38.7406 8.19201C38.6577 8.52386 38.6991 8.81423 38.8651 9.06312C39.0476 9.31201 39.3794 9.52771 39.8606 9.71023C40.3584 9.89275 41.0387 10.0836 41.9015 10.2827C43.3617 10.5648 44.5065 10.9464 45.3362 11.4276C46.1658 11.8922 46.7217 12.4812 47.0037 13.1947C47.3024 13.9082 47.3439 14.7793 47.1282 15.808C46.7631 17.5005 45.8754 18.7864 44.4651 19.6658C43.0713 20.5286 41.2046 20.96 38.8651 20.96Z"
          fill="#FF0420"/>
    <line x1="221.93" y1="4" x2="221.93" y2="20" stroke="#E0E2EB"/>
    <path d="M245.544 9.42045C245.483 8.88258 245.233 8.46591 244.794 8.17045C244.355 7.87121 243.802 7.72159 243.135 7.72159C242.658 7.72159 242.245 7.79735 241.896 7.94886C241.548 8.09659 241.277 8.30114 241.084 8.5625C240.894 8.82008 240.8 9.11364 240.8 9.44318C240.8 9.7197 240.864 9.95833 240.993 10.1591C241.125 10.3598 241.298 10.5284 241.51 10.6648C241.726 10.7973 241.957 10.9091 242.203 11C242.449 11.0871 242.686 11.1591 242.913 11.2159L244.05 11.5114C244.421 11.6023 244.802 11.7254 245.192 11.8807C245.582 12.036 245.944 12.2405 246.277 12.4943C246.61 12.7481 246.879 13.0625 247.084 13.4375C247.292 13.8125 247.396 14.2614 247.396 14.7841C247.396 15.4432 247.226 16.0284 246.885 16.5398C246.548 17.0511 246.057 17.4545 245.413 17.75C244.773 18.0455 243.998 18.1932 243.089 18.1932C242.218 18.1932 241.464 18.0549 240.828 17.7784C240.192 17.5019 239.694 17.1098 239.334 16.6023C238.974 16.0909 238.775 15.4848 238.737 14.7841H240.498C240.533 15.2045 240.669 15.5549 240.908 15.8352C241.15 16.1117 241.459 16.3182 241.834 16.4545C242.212 16.5871 242.627 16.6534 243.078 16.6534C243.574 16.6534 244.016 16.5758 244.402 16.4205C244.792 16.2614 245.099 16.0417 245.322 15.7614C245.546 15.4773 245.658 15.1458 245.658 14.767C245.658 14.4223 245.559 14.1402 245.362 13.9205C245.169 13.7008 244.906 13.5189 244.572 13.375C244.243 13.2311 243.87 13.1042 243.453 12.9943L242.078 12.6193C241.146 12.3655 240.408 11.9924 239.862 11.5C239.32 11.0076 239.05 10.3561 239.05 9.54545C239.05 8.875 239.231 8.28977 239.595 7.78977C239.959 7.28977 240.451 6.90151 241.072 6.625C241.694 6.3447 242.394 6.20455 243.175 6.20455C243.962 6.20455 244.658 6.3428 245.26 6.61932C245.866 6.89583 246.343 7.27652 246.692 7.76136C247.04 8.24242 247.222 8.79545 247.237 9.42045H245.544ZM253.583 18H251.72L255.907 6.36364H257.936L262.123 18H260.26L256.97 8.47727H256.879L253.583 18ZM253.896 13.4432H259.941V14.9205H253.896V13.4432ZM267.004 18V6.36364H274.22V7.875H268.759V11.4205H273.702V12.9261H268.759V18H267.004ZM279.579 18V6.36364H286.874V7.875H281.334V11.4205H286.493V12.9261H281.334V16.4886H286.942V18H279.579Z"
          fill="currentColor"/>
</svg>
