<svg width="262" height="24" xmlns="http://www.w3.org/2000/svg" fill="none">

    <g>
        <title>Layer 1</title>
        <path id="svg_1" fill="#FF0420"
              d="m158.69435,20.45136c-0.166,0 -0.299,-0.0581 -0.398,-0.1742c-0.1,-0.1162 -0.133,-0.2655 -0.1,-0.448l3.435,-16.17778c0.033,-0.18252 0.116,-0.33185 0.249,-0.448c0.149,-0.11615 0.315,-0.17422 0.498,-0.17422l2.638,0c0.265,0 0.448,0.05807 0.547,0.17422c0.116,0.11615 0.183,0.2157 0.199,0.29867l4.057,9.63201l2.016,-9.48268c0.033,-0.18252 0.125,-0.33185 0.274,-0.448c0.149,-0.11615 0.307,-0.17422 0.473,-0.17422l2.987,0c0.182,0 0.315,0.05807 0.398,0.17422c0.099,0.11615 0.133,0.26548 0.099,0.448l-3.434,16.17778c-0.033,0.1659 -0.125,0.3153 -0.274,0.448c-0.133,0.1161 -0.29,0.1742 -0.473,0.1742l-2.638,0c-0.266,0 -0.448,-0.0581 -0.548,-0.1742c-0.099,-0.1327 -0.166,-0.2323 -0.199,-0.2987l-4.106,-9.2835l-1.967,9.1342c-0.033,0.1825 -0.124,0.3318 -0.273,0.448c-0.133,0.1161 -0.291,0.1742 -0.473,0.1742l-2.987,0z"/>
        <path id="svg_2" fill="#FF0420"
              d="m149.62935,20.45136c-0.183,0 -0.324,-0.0581 -0.423,-0.1742c-0.1,-0.1162 -0.133,-0.2655 -0.1,-0.448l3.46,-16.17778c0.033,-0.18252 0.124,-0.33185 0.274,-0.448c0.149,-0.11615 0.307,-0.17422 0.473,-0.17422l3.36,0c0.165,0 0.298,0.05807 0.398,0.17422c0.099,0.11615 0.132,0.26548 0.099,0.448l-3.459,16.17778c-0.033,0.1825 -0.125,0.3318 -0.274,0.448c-0.133,0.1161 -0.282,0.1742 -0.448,0.1742l-3.36,0z"/>
        <path id="svg_3" fill="#FF0420"
              d="m129.15235,20.45136c-0.199,0 -0.34,-0.0829 -0.423,-0.2489c-0.083,-0.1659 -0.075,-0.3318 0.025,-0.4977l9.234,-15.97871c0.099,-0.18252 0.24,-0.34015 0.423,-0.47289c0.182,-0.14934 0.415,-0.224 0.697,-0.224l3.833,0c0.282,0 0.481,0.07466 0.597,0.224c0.133,0.13274 0.207,0.29037 0.224,0.47289l2.439,15.97871c0.05,0.2323 0.008,0.4148 -0.124,0.5475c-0.133,0.1327 -0.282,0.1991 -0.448,0.1991l-3.012,0c-0.249,0 -0.431,-0.0581 -0.547,-0.1742c-0.1,-0.1162 -0.166,-0.2489 -0.2,-0.3982l-0.423,-2.4889l-6.645,0l-1.493,2.5387c-0.083,0.1161 -0.199,0.2322 -0.349,0.3484c-0.132,0.1161 -0.323,0.1742 -0.572,0.1742l-3.236,0zm7.417,-6.6453l4.629,0l-0.92,-6.57068l-3.709,6.57068z"/>
        <path id="svg_4" fill="#FF0420"
              d="m111.18035,20.45136c-0.166,0 -0.299,-0.0581 -0.399,-0.1742c-0.099,-0.1162 -0.132,-0.2655 -0.099,-0.448l3.434,-16.17778c0.034,-0.18252 0.125,-0.33185 0.274,-0.448c0.15,-0.11615 0.307,-0.17422 0.473,-0.17422l3.211,0c0.182,0 0.323,0.05807 0.423,0.17422c0.099,0.11615 0.133,0.26548 0.099,0.448l-1.294,5.99822l6.148,0l1.269,-5.99822c0.033,-0.18252 0.116,-0.33185 0.249,-0.448c0.149,-0.11615 0.315,-0.17422 0.498,-0.17422l3.21,0c0.183,0 0.324,0.05807 0.424,0.17422c0.099,0.11615 0.132,0.26548 0.099,0.448l-3.459,16.17778c-0.034,0.1825 -0.125,0.3318 -0.274,0.448c-0.133,0.1161 -0.291,0.1742 -0.473,0.1742l-3.211,0c-0.182,0 -0.323,-0.0581 -0.423,-0.1742c-0.083,-0.1162 -0.108,-0.2655 -0.075,-0.448l1.32,-6.1973l-6.123,0l-1.344,6.1973c-0.033,0.1825 -0.125,0.3318 -0.274,0.448c-0.133,0.1161 -0.29,0.1742 -0.473,0.1742l-3.21,0z"/>
        <path id="svg_5" fill="#FF0420"
              d="m99.57735,20.70026c-1.128,0 -2.149,-0.141 -3.061,-0.4231c-0.896,-0.2821 -1.643,-0.7052 -2.24,-1.2693c-0.598,-0.5808 -1.012,-1.286 -1.245,-2.1156c-0.232,-0.8462 -0.257,-1.8252 -0.074,-2.9369c0.116,-0.6803 0.257,-1.4104 0.423,-2.1902c0.182,-0.7799 0.356,-1.5265 0.522,-2.24c0.365,-1.44356 0.93,-2.66311 1.693,-3.65867c0.763,-1.01215 1.725,-1.77541 2.887,-2.28978c1.178,-0.53096 2.563,-0.79644 4.156,-0.79644c1.062,0 2.05,0.13274 2.962,0.39822c0.913,0.26548 1.684,0.6637 2.315,1.19467c0.647,0.51437 1.112,1.14489 1.394,1.89155c0.298,0.73008 0.356,1.568 0.174,2.51378c-0.033,0.14933 -0.108,0.27378 -0.224,0.37333c-0.1,0.09956 -0.224,0.14934 -0.374,0.14934l-3.384,0c-0.216,0 -0.382,-0.04148 -0.498,-0.12445c-0.1,-0.09955 -0.166,-0.27377 -0.199,-0.52266c0.016,-0.86282 -0.208,-1.46015 -0.672,-1.792c-0.465,-0.33185 -1.079,-0.49778 -1.842,-0.49778c-0.913,0 -1.701,0.25718 -2.365,0.77155c-0.663,0.49778 -1.136,1.33571 -1.418,2.51378c-0.349,1.36056 -0.647,2.75436 -0.896,4.18136c-0.216,1.1781 -0.116,2.0243 0.298,2.5386c0.415,0.4978 1.079,0.7467 1.992,0.7467c0.763,0 1.451,-0.1659 2.065,-0.4978c0.614,-0.3318 1.12,-0.9292 1.519,-1.792c0.132,-0.2489 0.265,-0.4148 0.398,-0.4977c0.133,-0.0996 0.307,-0.1494 0.522,-0.1494l3.385,0c0.15,0 0.266,0.0498 0.349,0.1494c0.083,0.0995 0.108,0.224 0.074,0.3733c-0.232,0.9292 -0.597,1.7671 -1.095,2.5138c-0.481,0.73 -1.095,1.3606 -1.841,1.8915c-0.73,0.5144 -1.568,0.9126 -2.514,1.1947c-0.946,0.2655 -2.008,0.3982 -3.186,0.3982z"/>
        <path id="svg_6" fill="#FF0420"
              d="m74.87735,20.45136c-0.182,0 -0.323,-0.0581 -0.423,-0.1742c-0.083,-0.1162 -0.108,-0.2655 -0.075,-0.448l3.435,-16.17778c0.033,-0.18252 0.124,-0.33185 0.274,-0.448c0.149,-0.11615 0.315,-0.17422 0.498,-0.17422l6.769,0c2.141,0 3.717,0.49778 4.729,1.49333c1.029,0.97896 1.353,2.37274 0.971,4.18133c-0.249,1.17804 -0.747,2.17364 -1.493,2.98664c-0.73,0.8131 -1.602,1.427 -2.614,1.8418l2.116,6.1227c0.016,0.0498 0.025,0.0912 0.025,0.1244c0,0.0332 -0.009,0.083 -0.025,0.1494c-0.017,0.1327 -0.091,0.2571 -0.224,0.3733c-0.133,0.0995 -0.274,0.1493 -0.423,0.1493l-3.286,0c-0.315,0 -0.531,-0.0746 -0.647,-0.224c-0.099,-0.1659 -0.174,-0.3152 -0.224,-0.448l-1.667,-5.4755l-2.564,0l-1.17,5.5253c-0.033,0.1825 -0.124,0.3318 -0.273,0.448c-0.15,0.1161 -0.316,0.1742 -0.498,0.1742l-3.211,0zm5.899,-9.6569l2.887,0c0.78,0 1.402,-0.1908 1.867,-0.5724c0.464,-0.3816 0.771,-0.90431 0.92,-1.56801c0.133,-0.64711 0.05,-1.16978 -0.248,-1.568c-0.282,-0.39823 -0.83,-0.59734 -1.643,-0.59734l-2.862,0l-0.921,4.30575z"/>
        <path id="svg_7" fill="#FF0420"
              d="m57.66195,20.45136c-0.1659,0 -0.2986,-0.0581 -0.3982,-0.1742c-0.0995,-0.1162 -0.1327,-0.2655 -0.0995,-0.448l3.4346,-16.17778c0.0332,-0.18252 0.1245,-0.33185 0.2738,-0.448c0.1493,-0.11615 0.307,-0.17422 0.4729,-0.17422l11.6228,0c0.183,0 0.316,0.05807 0.399,0.17422c0.099,0.11615 0.132,0.26548 0.099,0.448l-0.473,2.33956c-0.05,0.18251 -0.149,0.33185 -0.298,0.448c-0.133,0.11614 -0.291,0.17422 -0.473,0.17422l-7.9399,0l-0.7218,3.36l7.3667,0c0.183,0 0.324,0.0664 0.424,0.1991c0.099,0.1162 0.132,0.2655 0.099,0.448l-0.473,2.1653c-0.033,0.166 -0.124,0.3153 -0.274,0.448c-0.1323,0.1162 -0.29,0.1743 -0.4725,0.1743l-7.392,0l-0.7218,3.4595l8.1138,0c0.1825,0 0.3153,0.0581 0.3983,0.1742c0.0992,0.1162 0.1322,0.2655 0.0992,0.448l-0.4975,2.3396c-0.0332,0.1825 -0.1244,0.3318 -0.2738,0.448c-0.1327,0.1161 -0.2903,0.1742 -0.4728,0.1742l-11.8223,0z"/>
        <path id="svg_8" fill="#FF0420"
              d="m39.84695,20.45136c-0.1659,0 -0.2986,-0.0581 -0.3982,-0.1742c-0.0995,-0.1162 -0.1327,-0.2655 -0.0995,-0.448l3.4346,-16.17778c0.0332,-0.18252 0.1245,-0.33185 0.2738,-0.448c0.1493,-0.11615 0.307,-0.17422 0.4729,-0.17422l6.6204,0c1.0122,0 1.9248,0.11615 2.7378,0.34844c0.8296,0.2323 1.5182,0.58904 2.0658,1.07022c0.5475,0.48119 0.9292,1.08682 1.1449,1.81689c0.2157,0.71349 0.224,1.55141 0.0249,2.51378c-0.4148,1.90817 -1.2611,3.31857 -2.5387,4.23107c-1.261,0.9126 -2.9618,1.3689 -5.1022,1.3689l-3.36,0l-1.1449,5.4507c-0.0332,0.1825 -0.1245,0.3318 -0.2738,0.448c-0.1327,0.1161 -0.2904,0.1742 -0.4729,0.1742l-3.3849,0zm5.9236,-9.5075l2.8622,0c0.6803,0 1.2859,-0.1826 1.8169,-0.5476c0.5476,-0.365 0.9043,-0.92088 1.0702,-1.66755c0.083,-0.4314 0.0996,-0.81303 0.0498,-1.14489c-0.0498,-0.33185 -0.224,-0.59733 -0.5227,-0.79644c-0.282,-0.19911 -0.7217,-0.29867 -1.3191,-0.29867l-2.9866,0l-0.9707,4.45515z"/>
        <path id="svg_9" fill="#FF0420"
              d="m27.78565,20.70026c-1.062,0 -2.0409,-0.1327 -2.9369,-0.3982c-0.896,-0.2821 -1.6427,-0.7052 -2.24,-1.2693c-0.5974,-0.5642 -1.0039,-1.2777 -1.2196,-2.1405c-0.2157,-0.8628 -0.1991,-1.8915 0.0498,-3.0862l2.1404,-10.15468c0.0332,-0.18252 0.1245,-0.33185 0.2738,-0.448c0.1493,-0.11615 0.3153,-0.17422 0.4978,-0.17422l3.2107,0c0.1825,0 0.3152,0.05807 0.3982,0.17422c0.0995,0.11615 0.1327,0.26548 0.0995,0.448l-2.1653,10.12978c-0.2157,1.0785 -0.1576,1.8916 0.1742,2.4391c0.3485,0.531 1.0288,0.7965 2.0409,0.7965c0.9956,0 1.8086,-0.2655 2.4391,-0.7965c0.6305,-0.5475 1.0619,-1.3606 1.2942,-2.4391l2.1654,-10.12978c0.0332,-0.18252 0.1244,-0.33185 0.2738,-0.448c0.1493,-0.11615 0.3069,-0.17422 0.4728,-0.17422l3.2107,0c0.1825,0 0.3153,0.05807 0.3982,0.17422c0.0996,0.11615 0.1328,0.26548 0.0996,0.448l-2.1405,10.15468c-0.5143,2.3727 -1.4601,4.115 -2.8373,5.2267c-1.3606,1.1117 -3.2604,1.6675 -5.6995,1.6675z"/>
        <path id="svg_10" fill="#FF0420"
              d="m9.51445,20.70026c-1.6593,0 -3.0199,-0.2323 -4.0818,-0.6969c-1.0453,-0.4646 -1.8003,-1.0785 -2.2649,-1.8418c-0.448,-0.7798 -0.6056,-1.6011 -0.4729,-2.464c0.0332,-0.1327 0.0996,-0.2488 0.1991,-0.3484c0.1162,-0.1161 0.2489,-0.1742 0.3982,-0.1742l3.1858,0c0.2323,0 0.3982,0.0415 0.4978,0.1244c0.0996,0.083 0.1991,0.1908 0.2987,0.3236c0.0663,0.2489 0.1991,0.4895 0.3982,0.7218c0.1991,0.2323 0.4729,0.4231 0.8213,0.5724c0.3651,0.1327 0.8131,0.1991 1.344,0.1991c0.9624,0 1.7339,-0.1493 2.3147,-0.448c0.5807,-0.2987 0.9209,-0.7052 1.0204,-1.2195c0.0996,-0.3651 0.0332,-0.6638 -0.1991,-0.896c-0.2157,-0.2489 -0.6056,-0.4646 -1.1698,-0.6472c-0.5475,-0.1991 -1.2859,-0.3982 -2.2151,-0.5973c-1.2112,-0.2655 -2.2068,-0.6305 -2.9866,-1.0951c-0.7799,-0.4812 -1.3274,-1.0868 -1.6427,-1.8169c-0.2987,-0.74666 -0.3401,-1.63436 -0.1244,-2.6631c0.3318,-1.52652 1.1531,-2.72948 2.464,-3.60889c1.3108,-0.896 3.0115,-1.344 5.1022,-1.344c1.0785,0 2.0326,0.14933 2.8622,0.448c0.8462,0.29867 1.5514,0.69689 2.1156,1.19466c0.5641,0.49778 0.9706,1.02875 1.2195,1.59289c0.2489,0.54756 0.3319,1.08682 0.2489,1.61778c-0.0166,0.13274 -0.083,0.25719 -0.1991,0.37334c-0.1162,0.09955 -0.2489,0.14933 -0.3982,0.14933l-3.3351,0c-0.166,0 -0.3153,-0.03319 -0.448,-0.09956c-0.1162,-0.06637 -0.2157,-0.17422 -0.2987,-0.32355c0,-0.36504 -0.1908,-0.6803 -0.5725,-0.94578c-0.3816,-0.28207 -0.8877,-0.42311 -1.5182,-0.42311c-0.7135,0 -1.3108,0.13274 -1.792,0.39822c-0.4812,0.24889 -0.7798,0.63882 -0.896,1.16978c-0.0829,0.33185 -0.0415,0.62222 0.1245,0.87111c0.1825,0.24889 0.5143,0.46459 0.9955,0.64711c0.4978,0.18252 1.1781,0.37337 2.0409,0.57247c1.4602,0.2821 2.605,0.6637 3.4347,1.1449c0.8296,0.4646 1.3855,1.0536 1.6675,1.7671c0.2987,0.7135 0.3402,1.5846 0.1245,2.6133c-0.3651,1.6925 -1.2528,2.9784 -2.6631,3.8578c-1.3938,0.8628 -3.2605,1.2942 -5.6,1.2942z"/>
        <line id="svg_11" stroke="#E0E2EB" y2="19.74026" x2="192.57935" y1="3.74026" x1="192.57935"/>
        <path id="svg_12" fill="currentColor"
              d="m216.19335,9.16071c-0.061,-0.53787 -0.311,-0.95454 -0.75,-1.25c-0.439,-0.29924 -0.992,-0.44886 -1.659,-0.44886c-0.477,0 -0.89,0.07576 -1.239,0.22727c-0.348,0.14773 -0.619,0.35228 -0.812,0.61364c-0.19,0.25758 -0.284,0.55114 -0.284,0.88068c0,0.27652 0.064,0.51515 0.193,0.71592c0.132,0.2007 0.305,0.3693 0.517,0.5057c0.216,0.1325 0.447,0.2443 0.693,0.3352c0.246,0.0871 0.483,0.1591 0.71,0.2159l1.137,0.2955c0.371,0.0909 0.752,0.214 1.142,0.3693c0.39,0.1553 0.752,0.3598 1.085,0.6136c0.333,0.2538 0.602,0.5682 0.807,0.9432c0.208,0.375 0.312,0.8239 0.312,1.3466c0,0.6591 -0.17,1.2443 -0.511,1.7557c-0.337,0.5113 -0.828,0.9147 -1.472,1.2102c-0.64,0.2955 -1.415,0.4432 -2.324,0.4432c-0.871,0 -1.625,-0.1383 -2.261,-0.4148c-0.636,-0.2765 -1.134,-0.6686 -1.494,-1.1761c-0.36,-0.5114 -0.559,-1.1175 -0.597,-1.8182l1.761,0c0.035,0.4204 0.171,0.7708 0.41,1.0511c0.242,0.2765 0.551,0.483 0.926,0.6193c0.378,0.1326 0.793,0.1989 1.244,0.1989c0.496,0 0.938,-0.0776 1.324,-0.2329c0.39,-0.1591 0.697,-0.3788 0.92,-0.6591c0.224,-0.2841 0.336,-0.6156 0.336,-0.9944c0,-0.3447 -0.099,-0.6268 -0.296,-0.8465c-0.193,-0.2197 -0.456,-0.4016 -0.79,-0.5455c-0.329,-0.1439 -0.702,-0.2708 -1.119,-0.3807l-1.375,-0.375c-0.932,-0.2538 -1.67,-0.6269 -2.216,-1.1193c-0.542,-0.4924 -0.812,-1.1439 -0.812,-1.95455c0,-0.67045 0.181,-1.25568 0.545,-1.75568c0.364,-0.5 0.856,-0.88826 1.477,-1.16477c0.622,-0.2803 1.322,-0.42045 2.103,-0.42045c0.787,0 1.483,0.13825 2.085,0.41477c0.606,0.27651 1.083,0.6572 1.432,1.14204c0.348,0.48106 0.53,1.03409 0.545,1.65909l-1.693,0zm8.039,8.57955l-1.863,0l4.187,-11.63636l2.029,0l4.187,11.63636l-1.863,0l-3.29,-9.52273l-0.091,0l-3.296,9.52273zm0.313,-4.5568l6.045,0l0,1.4773l-6.045,0l0,-1.4773zm13.108,4.5568l0,-11.63636l7.216,0l0,1.51136l-5.461,0l0,3.5455l4.943,0l0,1.5056l-4.943,0l0,5.0739l-1.755,0zm12.575,0l0,-11.63636l7.295,0l0,1.51136l-5.54,0l0,3.5455l5.159,0l0,1.5056l-5.159,0l0,3.5625l5.608,0l0,1.5114l-7.363,0z"/>
    </g>
</svg>
