<svg xmlns="http://www.w3.org/2000/svg" version="1.1" viewBox="0.00 0.00 637.00 85.00">
    <path fill="#ff0420" d="
  M 52.68 24.88
  C 49.84 21.84 45.08 21.82 41.29 22.79
  Q 36.54 24.02 35.63 28.01
  Q 34.85 31.44 38.56 33.05
  Q 42.22 34.64 45.91 35.33
  C 56.02 37.21 69.08 40.56 67.39 53.90
  C 64.98 72.92 44.92 76.23 29.59 74.54
  C 19.78 73.46 9.26 67.89 10.55 56.66
  A 2.16 2.15 -86.7 0 1 12.69 54.75
  L 25.54 54.75
  A 2.10 2.09 79.0 0 1 27.48 56.06
  Q 29.64 61.37 35.90 61.74
  C 40.43 62.00 47.00 61.36 49.37 57.01
  C 50.72 54.53 50.01 52.25 47.49 51.06
  C 38.19 46.64 23.41 47.79 19.02 36.73
  Q 17.21 32.17 18.77 26.63
  Q 21.87 15.57 32.61 11.59
  Q 43.09 7.71 54.35 9.94
  Q 64.79 12.00 69.64 20.02
  C 70.82 21.98 71.48 24.55 71.13 26.86
  A 2.22 2.21 -85.5 0 1 68.93 28.74
  Q 63.20 28.71 56.19 28.76
  C 55.00 28.77 53.55 28.17 53.48 26.78
  Q 53.44 25.68 52.68 24.88
  Z"
    />
    <path fill="#ff0420" d="
  M 374.28 30.94
  C 374.55 23.84 369.27 21.71 363.34 22.29
  Q 353.54 23.24 350.83 33.45
  Q 348.56 41.98 347.07 50.75
  Q 346.89 51.80 347.06 55.50
  C 347.21 58.85 350.28 61.19 353.49 61.59
  Q 365.00 63.02 369.49 53.03
  Q 370.40 51.00 372.58 51.00
  Q 378.72 51.00 385.08 50.99
  Q 387.53 50.99 386.86 53.35
  C 381.95 70.77 365.47 76.59 348.69 74.52
  C 336.08 72.96 327.64 64.86 329.67 51.64
  Q 331.04 42.70 333.54 33.42
  Q 339.36 11.82 360.57 9.48
  C 371.82 8.25 386.02 10.42 390.94 21.47
  Q 392.87 25.79 391.75 30.90
  Q 391.52 31.97 390.65 32.67
  Q 390.24 33.00 389.72 33.00
  L 376.26 33.00
  A 1.98 1.98 0.0 0 1 374.28 30.94
  Z"
    />
    <path fill="#ff0420" d="
  M 100.60 61.34
  C 110.46 62.15 114.89 56.69 116.73 47.98
  Q 120.65 29.34 124.49 12.27
  A 2.91 2.90 -83.7 0 1 127.32 10.00
  L 139.43 10.00
  A 1.79 1.79 0.0 0 1 141.18 12.16
  Q 136.95 32.17 132.62 51.30
  Q 128.02 71.58 108.49 74.40
  C 95.23 76.32 75.71 73.21 76.62 55.20
  Q 76.80 51.67 77.71 47.49
  Q 81.43 30.55 85.37 12.32
  A 2.95 2.94 6.1 0 1 88.25 10.00
  L 100.30 10.00
  A 1.87 1.87 0.0 0 1 102.13 12.28
  Q 97.92 31.24 93.63 51.44
  C 92.49 56.77 94.86 60.86 100.60 61.34
  Z"
    />
    <path fill="#ff0420" d="
  M 161.61 52.30
  L 157.42 71.84
  A 2.74 2.74 0.0 0 1 154.74 74.00
  L 141.73 74.00
  A 1.68 1.68 0.0 0 1 140.09 71.96
  L 153.03 12.24
  A 2.83 2.83 0.0 0 1 155.80 10.00
  Q 167.24 10.00 180.43 10.00
  C 195.13 10.00 207.37 16.79 202.35 33.73
  Q 197.74 49.30 180.26 51.38
  Q 175.31 51.97 162.44 51.65
  Q 161.76 51.64 161.61 52.30
  Z
  M 164.36 38.55
  A 0.42 0.41 4.7 0 0 164.79 39.05
  Q 168.65 38.86 173.25 39.07
  C 179.98 39.38 185.29 36.58 185.99 29.36
  Q 186.62 22.90 180.28 22.78
  Q 174.65 22.68 168.33 22.75
  Q 167.80 22.75 167.69 23.26
  L 164.36 38.55
  Z"
    />
    <path fill="#ff0420" d="
  M 223.23 60.75
  L 253.06 60.75
  A 1.92 1.91 6.0 0 1 254.94 63.06
  L 253.07 71.74
  A 2.87 2.86 -83.9 0 1 250.27 74.00
  L 205.72 74.00
  A 1.55 1.52 -26.6 0 1 204.82 73.71
  Q 203.87 73.02 204.10 71.95
  Q 210.66 41.63 217.03 12.22
  A 2.81 2.81 0.0 0 1 219.78 10.00
  L 263.25 10.00
  A 2.06 2.06 0.0 0 1 265.26 12.50
  L 263.40 20.96
  A 2.92 2.91 6.1 0 1 260.55 23.25
  L 231.31 23.25
  Q 230.84 23.25 230.74 23.71
  L 228.23 34.80
  Q 228.07 35.53 228.81 35.53
  L 255.97 35.53
  A 1.75 1.74 -83.6 0 1 257.67 37.66
  Q 256.87 41.30 256.05 45.22
  Q 255.42 48.26 252.36 48.25
  Q 239.82 48.25 225.87 48.25
  Q 225.32 48.25 225.20 48.79
  L 222.81 60.24
  Q 222.71 60.75 223.23 60.75
  Z"
    />
    <path fill="#ff0420" d="
  M 311.67 49.08
  L 319.38 70.95
  A 2.29 2.28 80.2 0 1 317.23 74.00
  L 304.48 74.00
  Q 302.24 74.00 301.58 71.87
  L 295.38 51.92
  A 0.65 0.64 -8.5 0 0 294.76 51.47
  L 286.23 51.48
  Q 285.67 51.48 285.55 52.03
  L 281.19 71.69
  A 2.96 2.95 -83.6 0 1 278.31 74.00
  L 266.26 74.00
  A 1.86 1.86 0.0 0 1 264.44 71.75
  L 277.29 12.48
  Q 277.81 10.07 280.28 10.04
  Q 293.20 9.92 306.67 10.05
  C 316.97 10.16 328.34 14.46 327.46 26.84
  C 326.74 36.82 321.08 44.58 312.01 48.32
  Q 311.48 48.54 311.67 49.08
  Z
  M 308.61 33.53
  C 311.27 29.03 310.16 22.89 303.75 22.78
  Q 298.37 22.69 292.34 22.74
  Q 291.82 22.74 291.71 23.25
  L 288.47 38.02
  A 0.40 0.40 0.0 0 0 288.85 38.50
  Q 294.53 38.62 300.12 38.46
  Q 305.80 38.29 308.61 33.53
  Z"
    />
    <path fill="#ff0420" d="
  M 418.67 34.26
  L 440.30 34.26
  Q 441.01 34.26 441.16 33.57
  L 445.77 12.23
  A 2.82 2.82 0.0 0 1 448.53 10.00
  L 460.59 10.00
  A 1.94 1.94 0.0 0 1 462.49 12.35
  L 449.48 71.89
  A 2.68 2.67 -83.8 0 1 446.87 74.00
  L 434.58 74.00
  A 1.78 1.78 0.0 0 1 432.84 71.83
  L 437.76 49.29
  A 0.24 0.23 6.7 0 0 437.53 49.00
  L 415.14 49.00
  A 0.41 0.41 0.0 0 0 414.74 49.32
  L 409.94 71.46
  A 3.22 3.22 0.0 0 1 406.79 74.00
  L 394.73 74.00
  A 1.68 1.68 0.0 0 1 393.09 71.96
  L 406.06 12.09
  A 2.66 2.65 6.0 0 1 408.66 10.00
  L 420.85 10.00
  A 1.94 1.93 -83.9 0 1 422.74 12.35
  L 418.16 33.64
  Q 418.03 34.26 418.67 34.26
  Z"
    />
    <path fill="#ff0420" d="
  M 503.47 62.74
  L 479.79 62.74
  Q 479.25 62.74 478.98 63.20
  L 473.57 72.21
  A 3.68 3.68 0.0 0 1 470.41 74.00
  L 458.01 74.00
  A 1.70 1.70 0.0 0 1 456.54 71.44
  Q 473.97 41.86 491.28 12.54
  Q 492.78 10.01 495.70 10.00
  Q 502.77 9.99 509.92 10.01
  A 2.95 2.95 0.0 0 1 512.82 12.50
  L 522.04 71.68
  A 2.01 2.00 85.6 0 1 520.06 74.00
  L 508.23 74.00
  Q 506.17 74.00 505.82 71.98
  L 504.34 63.47
  Q 504.21 62.74 503.47 62.74
  Z
  M 486.19 49.06
  A 0.32 0.32 0.0 0 0 486.46 49.54
  L 502.90 49.53
  A 0.32 0.32 0.0 0 0 503.22 49.16
  L 499.94 26.31
  A 0.32 0.32 0.0 0 0 499.35 26.19
  L 486.19 49.06
  Z"
    />
    <path fill="#ff0420" d="
  M 560.20 12.47
  L 547.22 72.26
  A 2.07 2.07 0.0 0 1 545.22 73.89
  L 532.13 74.07
  A 2.07 2.07 0.0 0 1 530.08 71.55
  L 543.17 11.72
  A 2.07 2.07 0.0 0 1 545.17 10.09
  L 558.15 9.96
  A 2.07 2.07 0.0 0 1 560.20 12.47
  Z"
    />
    <path fill="#ff0420" d="
  M 583.15 38.95
  L 576.06 71.64
  A 3.00 2.99 6.1 0 1 573.13 74.00
  L 561.61 74.00
  A 1.58 1.47 5.7 0 1 560.04 72.22
  L 573.03 12.22
  A 2.81 2.81 0.0 0 1 575.78 10.00
  L 585.77 10.00
  A 2.93 2.92 -11.6 0 1 588.46 11.77
  L 603.26 46.26
  Q 603.68 47.22 603.90 46.20
  L 611.17 12.71
  Q 611.76 10.00 614.53 10.00
  L 625.43 10.00
  A 1.80 1.80 0.0 0 1 627.19 12.18
  L 614.14 71.88
  A 2.70 2.69 6.1 0 1 611.50 74.00
  L 601.21 74.00
  A 2.57 2.56 -12.1 0 1 598.87 72.49
  L 583.68 38.89
  Q 583.33 38.13 583.15 38.95
  Z"
    />
</svg>
